<?xml version="1.0" encoding="UTF-8" standalone="no"?>
<!DOCTYPE svg PUBLIC "-//W3C//DTD SVG 1.1//EN"
 "http://www.w3.org/Graphics/SVG/1.1/DTD/svg11.dtd">
<!-- Generated by graphviz version 2.43.0 (0)
 -->
<!-- Title: G Pages: 1 -->
<svg width="464pt" height="400pt"
 viewBox="0.00 0.00 464.15 400.45" xmlns="http://www.w3.org/2000/svg" xmlns:xlink="http://www.w3.org/1999/xlink">
<g id="graph0" class="graph" transform="scale(1 1) rotate(0) translate(4 396.45)">
<title>G</title>
<polygon fill="white" stroke="transparent" points="-4,4 -4,-396.45 460.15,-396.45 460.15,4 -4,4"/>
<!-- system.ruby.network_gpu.routers00 -->
<g id="node1" class="node">
<title>system.ruby.network_gpu.routers00</title>
<path fill="#cce6fc" stroke="#000000" d="M186.13,-98.67C186.13,-98.67 216.13,-98.67 216.13,-98.67 222.13,-98.67 228.13,-104.67 228.13,-110.67 228.13,-110.67 228.13,-122.67 228.13,-122.67 228.13,-128.67 222.13,-134.67 216.13,-134.67 216.13,-134.67 186.13,-134.67 186.13,-134.67 180.13,-134.67 174.13,-128.67 174.13,-122.67 174.13,-122.67 174.13,-110.67 174.13,-110.67 174.13,-104.67 180.13,-98.67 186.13,-98.67"/>
<text text-anchor="middle" x="201.13" y="-112.97" font-family="Arial" font-size="14.00" fill="#000000">R 0</text>
</g>
<!-- system.ruby.network_gpu.routers14 -->
<g id="node15" class="node">
<title>system.ruby.network_gpu.routers14</title>
<path fill="#cce6fc" stroke="#000000" d="M215.71,-177.37C215.71,-177.37 245.71,-177.37 245.71,-177.37 251.71,-177.37 257.71,-183.37 257.71,-189.37 257.71,-189.37 257.71,-201.37 257.71,-201.37 257.71,-207.37 251.71,-213.37 245.71,-213.37 245.71,-213.37 215.71,-213.37 215.71,-213.37 209.71,-213.37 203.71,-207.37 203.71,-201.37 203.71,-201.37 203.71,-189.37 203.71,-189.37 203.71,-183.37 209.71,-177.37 215.71,-177.37"/>
<text text-anchor="middle" x="230.71" y="-191.67" font-family="Arial" font-size="14.00" fill="#000000">R 14</text>
</g>
<!-- system.ruby.network_gpu.routers00&#45;&#45;system.ruby.network_gpu.routers14 -->
<g id="edge1" class="edge">
<title>system.ruby.network_gpu.routers00&#45;&#45;system.ruby.network_gpu.routers14</title>
<path fill="none" stroke="black" d="M202.02,-134.95C205.31,-147.69 211.52,-164.58 217.52,-177.27"/>
</g>
<!-- system.ruby.network_gpu.routers01 -->
<g id="node2" class="node">
<title>system.ruby.network_gpu.routers01</title>
<path fill="#cce6fc" stroke="#000000" d="M285.94,-131.28C285.94,-131.28 315.94,-131.28 315.94,-131.28 321.94,-131.28 327.94,-137.28 327.94,-143.28 327.94,-143.28 327.94,-155.28 327.94,-155.28 327.94,-161.28 321.94,-167.28 315.94,-167.28 315.94,-167.28 285.94,-167.28 285.94,-167.28 279.94,-167.28 273.94,-161.28 273.94,-155.28 273.94,-155.28 273.94,-143.28 273.94,-143.28 273.94,-137.28 279.94,-131.28 285.94,-131.28"/>
<text text-anchor="middle" x="300.94" y="-145.58" font-family="Arial" font-size="14.00" fill="#000000">R 1</text>
</g>
<!-- system.ruby.network_gpu.routers01&#45;&#45;system.ruby.network_gpu.routers14 -->
<g id="edge2" class="edge">
<title>system.ruby.network_gpu.routers01&#45;&#45;system.ruby.network_gpu.routers14</title>
<path fill="none" stroke="black" d="M273.64,-159.51C264.77,-164.73 255.2,-171.11 247.34,-177.09"/>
</g>
<!-- system.ruby.network_gpu.routers02 -->
<g id="node3" class="node">
<title>system.ruby.network_gpu.routers02</title>
<path fill="#cce6fc" stroke="#000000" d="M133.62,-188.78C133.62,-188.78 163.62,-188.78 163.62,-188.78 169.62,-188.78 175.62,-194.78 175.62,-200.78 175.62,-200.78 175.62,-212.78 175.62,-212.78 175.62,-218.78 169.62,-224.78 163.62,-224.78 163.62,-224.78 133.62,-224.78 133.62,-224.78 127.62,-224.78 121.62,-218.78 121.62,-212.78 121.62,-212.78 121.62,-200.78 121.62,-200.78 121.62,-194.78 127.62,-188.78 133.62,-188.78"/>
<text text-anchor="middle" x="148.62" y="-203.08" font-family="Arial" font-size="14.00" fill="#000000">R 2</text>
</g>
<!-- system.ruby.network_gpu.routers02&#45;&#45;system.ruby.network_gpu.routers14 -->
<g id="edge3" class="edge">
<title>system.ruby.network_gpu.routers02&#45;&#45;system.ruby.network_gpu.routers14</title>
<path fill="none" stroke="black" d="M175.92,-209.4C184.8,-208.67 194.65,-207.33 203.52,-205.65"/>
</g>
<!-- system.ruby.network_gpu.routers03 -->
<g id="node4" class="node">
<title>system.ruby.network_gpu.routers03</title>
<path fill="#cce6fc" stroke="#000000" d="M145.18,-224.2C145.18,-224.2 175.18,-224.2 175.18,-224.2 181.18,-224.2 187.18,-230.2 187.18,-236.2 187.18,-236.2 187.18,-248.2 187.18,-248.2 187.18,-254.2 181.18,-260.2 175.18,-260.2 175.18,-260.2 145.18,-260.2 145.18,-260.2 139.18,-260.2 133.18,-254.2 133.18,-248.2 133.18,-248.2 133.18,-236.2 133.18,-236.2 133.18,-230.2 139.18,-224.2 145.18,-224.2"/>
<text text-anchor="middle" x="160.18" y="-238.5" font-family="Arial" font-size="14.00" fill="#000000">R 3</text>
</g>
<!-- system.ruby.network_gpu.routers03&#45;&#45;system.ruby.network_gpu.routers14 -->
<g id="edge4" class="edge">
<title>system.ruby.network_gpu.routers03&#45;&#45;system.ruby.network_gpu.routers14</title>
<path fill="none" stroke="black" d="M187.21,-231.94C196.32,-226.54 206.2,-219.87 214.26,-213.67"/>
</g>
<!-- system.ruby.network_gpu.routers04 -->
<g id="node5" class="node">
<title>system.ruby.network_gpu.routers04</title>
<path fill="#cce6fc" stroke="#000000" d="M172.84,-249.56C172.84,-249.56 202.84,-249.56 202.84,-249.56 208.84,-249.56 214.84,-255.56 214.84,-261.56 214.84,-261.56 214.84,-273.56 214.84,-273.56 214.84,-279.56 208.84,-285.56 202.84,-285.56 202.84,-285.56 172.84,-285.56 172.84,-285.56 166.84,-285.56 160.84,-279.56 160.84,-273.56 160.84,-273.56 160.84,-261.56 160.84,-261.56 160.84,-255.56 166.84,-249.56 172.84,-249.56"/>
<text text-anchor="middle" x="187.84" y="-263.86" font-family="Arial" font-size="14.00" fill="#000000">R 4</text>
</g>
<!-- system.ruby.network_gpu.routers04&#45;&#45;system.ruby.network_gpu.routers14 -->
<g id="edge5" class="edge">
<title>system.ruby.network_gpu.routers04&#45;&#45;system.ruby.network_gpu.routers14</title>
<path fill="none" stroke="black" d="M205.81,-249.46C213.38,-238.43 221.47,-224.43 226.53,-213.41"/>
</g>
<!-- system.ruby.network_gpu.routers05 -->
<g id="node6" class="node">
<title>system.ruby.network_gpu.routers05</title>
<path fill="#cce6fc" stroke="#000000" d="M135.09,-151.61C135.09,-151.61 165.09,-151.61 165.09,-151.61 171.09,-151.61 177.09,-157.61 177.09,-163.61 177.09,-163.61 177.09,-175.61 177.09,-175.61 177.09,-181.61 171.09,-187.61 165.09,-187.61 165.09,-187.61 135.09,-187.61 135.09,-187.61 129.09,-187.61 123.09,-181.61 123.09,-175.61 123.09,-175.61 123.09,-163.61 123.09,-163.61 123.09,-157.61 129.09,-151.61 135.09,-151.61"/>
<text text-anchor="middle" x="150.09" y="-165.91" font-family="Arial" font-size="14.00" fill="#000000">R 5</text>
</g>
<!-- system.ruby.network_gpu.routers05&#45;&#45;system.ruby.network_gpu.routers14 -->
<g id="edge6" class="edge">
<title>system.ruby.network_gpu.routers05&#45;&#45;system.ruby.network_gpu.routers14</title>
<path fill="none" stroke="black" d="M177.22,-185.11C185.67,-188.21 194.99,-191.12 203.46,-193.3"/>
</g>
<!-- system.ruby.network_gpu.routers06 -->
<g id="node7" class="node">
<title>system.ruby.network_gpu.routers06</title>
<path fill="#cce6fc" stroke="#000000" d="M155.08,-119.59C155.08,-119.59 185.08,-119.59 185.08,-119.59 191.08,-119.59 197.08,-125.59 197.08,-131.59 197.08,-131.59 197.08,-143.59 197.08,-143.59 197.08,-149.59 191.08,-155.59 185.08,-155.59 185.08,-155.59 155.08,-155.59 155.08,-155.59 149.08,-155.59 143.08,-149.59 143.08,-143.59 143.08,-143.59 143.08,-131.59 143.08,-131.59 143.08,-125.59 149.08,-119.59 155.08,-119.59"/>
<text text-anchor="middle" x="170.08" y="-133.89" font-family="Arial" font-size="14.00" fill="#000000">R 6</text>
</g>
<!-- system.ruby.network_gpu.routers06&#45;&#45;system.ruby.network_gpu.routers14 -->
<g id="edge7" class="edge">
<title>system.ruby.network_gpu.routers06&#45;&#45;system.ruby.network_gpu.routers14</title>
<path fill="none" stroke="black" d="M180.7,-155.83C187.12,-163.13 195.51,-171.44 203.6,-178.59"/>
</g>
<!-- system.ruby.network_gpu.routers07 -->
<g id="node8" class="node">
<title>system.ruby.network_gpu.routers07</title>
<path fill="#cce6fc" stroke="#000000" d="M299.11,-166.3C299.11,-166.3 329.11,-166.3 329.11,-166.3 335.11,-166.3 341.11,-172.3 341.11,-178.3 341.11,-178.3 341.11,-190.3 341.11,-190.3 341.11,-196.3 335.11,-202.3 329.11,-202.3 329.11,-202.3 299.11,-202.3 299.11,-202.3 293.11,-202.3 287.11,-196.3 287.11,-190.3 287.11,-190.3 287.11,-178.3 287.11,-178.3 287.11,-172.3 293.11,-166.3 299.11,-166.3"/>
<text text-anchor="middle" x="314.11" y="-180.6" font-family="Arial" font-size="14.00" fill="#000000">R 7</text>
</g>
<!-- system.ruby.network_gpu.routers07&#45;&#45;system.ruby.network_gpu.routers14 -->
<g id="edge8" class="edge">
<title>system.ruby.network_gpu.routers07&#45;&#45;system.ruby.network_gpu.routers14</title>
<path fill="none" stroke="black" d="M286.89,-181.53C277.56,-182.23 267.13,-183.59 257.81,-185.31"/>
</g>
<!-- system.ruby.network_gpu.routers08 -->
<g id="node9" class="node">
<title>system.ruby.network_gpu.routers08</title>
<path fill="#cce6fc" stroke="#000000" d="M295.65,-203.58C295.65,-203.58 325.65,-203.58 325.65,-203.58 331.65,-203.58 337.65,-209.58 337.65,-215.58 337.65,-215.58 337.65,-227.58 337.65,-227.58 337.65,-233.58 331.65,-239.58 325.65,-239.58 325.65,-239.58 295.65,-239.58 295.65,-239.58 289.65,-239.58 283.65,-233.58 283.65,-227.58 283.65,-227.58 283.65,-215.58 283.65,-215.58 283.65,-209.58 289.65,-203.58 295.65,-203.58"/>
<text text-anchor="middle" x="310.65" y="-217.88" font-family="Arial" font-size="14.00" fill="#000000">R 8</text>
</g>
<!-- system.ruby.network_gpu.routers08&#45;&#45;system.ruby.network_gpu.routers14 -->
<g id="edge9" class="edge">
<title>system.ruby.network_gpu.routers08&#45;&#45;system.ruby.network_gpu.routers14</title>
<path fill="none" stroke="black" d="M283.37,-205.76C275.1,-202.68 266.03,-199.78 257.78,-197.6"/>
</g>
<!-- system.ruby.network_gpu.routers09 -->
<g id="node10" class="node">
<title>system.ruby.network_gpu.routers09</title>
<path fill="#cce6fc" stroke="#000000" d="M209.3,-263.57C209.3,-263.57 239.3,-263.57 239.3,-263.57 245.3,-263.57 251.3,-269.57 251.3,-275.57 251.3,-275.57 251.3,-287.57 251.3,-287.57 251.3,-293.57 245.3,-299.57 239.3,-299.57 239.3,-299.57 209.3,-299.57 209.3,-299.57 203.3,-299.57 197.3,-293.57 197.3,-287.57 197.3,-287.57 197.3,-275.57 197.3,-275.57 197.3,-269.57 203.3,-263.57 209.3,-263.57"/>
<text text-anchor="middle" x="224.3" y="-277.87" font-family="Arial" font-size="14.00" fill="#000000">R 9</text>
</g>
<!-- system.ruby.network_gpu.routers09&#45;&#45;system.ruby.network_gpu.routers14 -->
<g id="edge10" class="edge">
<title>system.ruby.network_gpu.routers09&#45;&#45;system.ruby.network_gpu.routers14</title>
<path fill="none" stroke="black" d="M231.36,-263.28C233.91,-248.64 235.4,-228.19 234.96,-213.57"/>
</g>
<!-- system.ruby.network_gpu.routers10 -->
<g id="node11" class="node">
<title>system.ruby.network_gpu.routers10</title>
<path fill="#cce6fc" stroke="#000000" d="M258.97,-105.23C258.97,-105.23 288.97,-105.23 288.97,-105.23 294.97,-105.23 300.97,-111.23 300.97,-117.23 300.97,-117.23 300.97,-129.23 300.97,-129.23 300.97,-135.23 294.97,-141.23 288.97,-141.23 288.97,-141.23 258.97,-141.23 258.97,-141.23 252.97,-141.23 246.97,-135.23 246.97,-129.23 246.97,-129.23 246.97,-117.23 246.97,-117.23 246.97,-111.23 252.97,-105.23 258.97,-105.23"/>
<text text-anchor="middle" x="273.97" y="-119.53" font-family="Arial" font-size="14.00" fill="#000000">R 10</text>
</g>
<!-- system.ruby.network_gpu.routers10&#45;&#45;system.ruby.network_gpu.routers14 -->
<g id="edge11" class="edge">
<title>system.ruby.network_gpu.routers10&#45;&#45;system.ruby.network_gpu.routers14</title>
<path fill="none" stroke="black" d="M255.9,-141.29C248.27,-152.31 240.11,-166.3 234.98,-177.33"/>
</g>
<!-- system.ruby.network_gpu.routers11 -->
<g id="node12" class="node">
<title>system.ruby.network_gpu.routers11</title>
<path fill="#cce6fc" stroke="#000000" d="M243.39,-252C243.39,-252 273.39,-252 273.39,-252 279.39,-252 285.39,-258 285.39,-264 285.39,-264 285.39,-276 285.39,-276 285.39,-282 279.39,-288 273.39,-288 273.39,-288 243.39,-288 243.39,-288 237.39,-288 231.39,-282 231.39,-276 231.39,-276 231.39,-264 231.39,-264 231.39,-258 237.39,-252 243.39,-252"/>
<text text-anchor="middle" x="258.39" y="-266.3" font-family="Arial" font-size="14.00" fill="#000000">R 11</text>
</g>
<!-- system.ruby.network_gpu.routers11&#45;&#45;system.ruby.network_gpu.routers14 -->
<g id="edge12" class="edge">
<title>system.ruby.network_gpu.routers11&#45;&#45;system.ruby.network_gpu.routers14</title>
<path fill="none" stroke="black" d="M257.71,-251.83C254.74,-240.15 249.29,-225.07 243.88,-213.42"/>
</g>
<!-- system.ruby.network_gpu.routers12 -->
<g id="node13" class="node">
<title>system.ruby.network_gpu.routers12</title>
<path fill="#cce6fc" stroke="#000000" d="M277.32,-237.06C277.32,-237.06 307.32,-237.06 307.32,-237.06 313.32,-237.06 319.32,-243.06 319.32,-249.06 319.32,-249.06 319.32,-261.06 319.32,-261.06 319.32,-267.06 313.32,-273.06 307.32,-273.06 307.32,-273.06 277.32,-273.06 277.32,-273.06 271.32,-273.06 265.32,-267.06 265.32,-261.06 265.32,-261.06 265.32,-249.06 265.32,-249.06 265.32,-243.06 271.32,-237.06 277.32,-237.06"/>
<text text-anchor="middle" x="292.32" y="-251.36" font-family="Arial" font-size="14.00" fill="#000000">R 12</text>
</g>
<!-- system.ruby.network_gpu.routers12&#45;&#45;system.ruby.network_gpu.routers14 -->
<g id="edge13" class="edge">
<title>system.ruby.network_gpu.routers12&#45;&#45;system.ruby.network_gpu.routers14</title>
<path fill="none" stroke="black" d="M282.07,-237.05C275.46,-229.36 266.65,-220.48 258.16,-212.85"/>
</g>
<!-- system.ruby.network_gpu.routers13 -->
<g id="node14" class="node">
<title>system.ruby.network_gpu.routers13</title>
<path fill="#cce6fc" stroke="#000000" d="M223.28,-93.98C223.28,-93.98 253.28,-93.98 253.28,-93.98 259.28,-93.98 265.28,-99.98 265.28,-105.98 265.28,-105.98 265.28,-117.98 265.28,-117.98 265.28,-123.98 259.28,-129.98 253.28,-129.98 253.28,-129.98 223.28,-129.98 223.28,-129.98 217.28,-129.98 211.28,-123.98 211.28,-117.98 211.28,-117.98 211.28,-105.98 211.28,-105.98 211.28,-99.98 217.28,-93.98 223.28,-93.98"/>
<text text-anchor="middle" x="238.28" y="-108.28" font-family="Arial" font-size="14.00" fill="#000000">R 13</text>
</g>
<!-- system.ruby.network_gpu.routers13&#45;&#45;system.ruby.network_gpu.routers14 -->
<g id="edge14" class="edge">
<title>system.ruby.network_gpu.routers13&#45;&#45;system.ruby.network_gpu.routers14</title>
<path fill="none" stroke="black" d="M236.64,-130.08C235.37,-144.06 233.62,-163.33 232.35,-177.31"/>
</g>
<!-- system.ruby.network_gpu.routers14&#45;&#45;system.ruby.network_gpu.routers00 -->
<g id="edge15" class="edge">
<title>system.ruby.network_gpu.routers14&#45;&#45;system.ruby.network_gpu.routers00</title>
<path fill="none" stroke="black" d="M229.82,-177.1C226.52,-164.36 220.31,-147.47 214.32,-134.77"/>
</g>
<!-- system.ruby.network_gpu.routers14&#45;&#45;system.ruby.network_gpu.routers01 -->
<g id="edge16" class="edge">
<title>system.ruby.network_gpu.routers14&#45;&#45;system.ruby.network_gpu.routers01</title>
<path fill="none" stroke="black" d="M258.01,-185.14C266.89,-179.92 276.45,-173.54 284.31,-167.56"/>
</g>
<!-- system.ruby.network_gpu.routers14&#45;&#45;system.ruby.network_gpu.routers02 -->
<g id="edge17" class="edge">
<title>system.ruby.network_gpu.routers14&#45;&#45;system.ruby.network_gpu.routers02</title>
<path fill="none" stroke="black" d="M203.41,-192.75C194.53,-193.48 184.68,-194.82 175.81,-196.5"/>
</g>
<!-- system.ruby.network_gpu.routers14&#45;&#45;system.ruby.network_gpu.routers03 -->
<g id="edge18" class="edge">
<title>system.ruby.network_gpu.routers14&#45;&#45;system.ruby.network_gpu.routers03</title>
<path fill="none" stroke="black" d="M203.68,-205.63C194.57,-211.04 184.69,-217.7 176.63,-223.91"/>
</g>
<!-- system.ruby.network_gpu.routers14&#45;&#45;system.ruby.network_gpu.routers04 -->
<g id="edge19" class="edge">
<title>system.ruby.network_gpu.routers14&#45;&#45;system.ruby.network_gpu.routers04</title>
<path fill="none" stroke="black" d="M212.73,-213.47C205.17,-224.5 197.08,-238.5 192.02,-249.52"/>
</g>
<!-- system.ruby.network_gpu.routers14&#45;&#45;system.ruby.network_gpu.routers05 -->
<g id="edge20" class="edge">
<title>system.ruby.network_gpu.routers14&#45;&#45;system.ruby.network_gpu.routers05</title>
<path fill="none" stroke="black" d="M203.59,-179.87C195.13,-176.78 185.81,-173.86 177.34,-171.69"/>
</g>
<!-- system.ruby.network_gpu.routers14&#45;&#45;system.ruby.network_gpu.routers06 -->
<g id="edge21" class="edge">
<title>system.ruby.network_gpu.routers14&#45;&#45;system.ruby.network_gpu.routers06</title>
<path fill="none" stroke="black" d="M220.09,-177.13C213.67,-169.83 205.28,-161.52 197.19,-154.37"/>
</g>
<!-- system.ruby.network_gpu.routers14&#45;&#45;system.ruby.network_gpu.routers07 -->
<g id="edge22" class="edge">
<title>system.ruby.network_gpu.routers14&#45;&#45;system.ruby.network_gpu.routers07</title>
<path fill="none" stroke="black" d="M257.93,-198.14C267.26,-197.44 277.69,-196.09 287.01,-194.37"/>
</g>
<!-- system.ruby.network_gpu.routers14&#45;&#45;system.ruby.network_gpu.routers08 -->
<g id="edge23" class="edge">
<title>system.ruby.network_gpu.routers14&#45;&#45;system.ruby.network_gpu.routers08</title>
<path fill="none" stroke="black" d="M257.99,-211.19C266.26,-214.27 275.33,-217.17 283.58,-219.35"/>
</g>
<!-- system.ruby.network_gpu.routers14&#45;&#45;system.ruby.network_gpu.routers09 -->
<g id="edge24" class="edge">
<title>system.ruby.network_gpu.routers14&#45;&#45;system.ruby.network_gpu.routers09</title>
<path fill="none" stroke="black" d="M223.66,-213.65C221.11,-228.3 219.62,-248.75 220.06,-263.37"/>
</g>
<!-- system.ruby.network_gpu.routers14&#45;&#45;system.ruby.network_gpu.routers10 -->
<g id="edge25" class="edge">
<title>system.ruby.network_gpu.routers14&#45;&#45;system.ruby.network_gpu.routers10</title>
<path fill="none" stroke="black" d="M248.79,-177.31C256.42,-166.29 264.58,-152.3 269.7,-141.28"/>
</g>
<!-- system.ruby.network_gpu.routers14&#45;&#45;system.ruby.network_gpu.routers11 -->
<g id="edge26" class="edge">
<title>system.ruby.network_gpu.routers14&#45;&#45;system.ruby.network_gpu.routers11</title>
<path fill="none" stroke="black" d="M231.39,-213.54C234.35,-225.22 239.81,-240.3 245.22,-251.95"/>
</g>
<!-- system.ruby.network_gpu.routers14&#45;&#45;system.ruby.network_gpu.routers12 -->
<g id="edge27" class="edge">
<title>system.ruby.network_gpu.routers14&#45;&#45;system.ruby.network_gpu.routers12</title>
<path fill="none" stroke="black" d="M240.96,-213.38C247.57,-221.07 256.38,-229.96 264.87,-237.58"/>
</g>
<!-- system.ruby.tcp_cntrl0 -->
<g id="node16" class="node">
<title>system.ruby.tcp_cntrl0</title>
<path fill="#e5bcd0" stroke="#000000" d="M128.31,-10.93C128.31,-10.93 208.31,-10.93 208.31,-10.93 214.31,-10.93 220.31,-16.93 220.31,-22.93 220.31,-22.93 220.31,-34.93 220.31,-34.93 220.31,-40.93 214.31,-46.93 208.31,-46.93 208.31,-46.93 128.31,-46.93 128.31,-46.93 122.31,-46.93 116.31,-40.93 116.31,-34.93 116.31,-34.93 116.31,-22.93 116.31,-22.93 116.31,-16.93 122.31,-10.93 128.31,-10.93"/>
<text text-anchor="middle" x="168.31" y="-25.23" font-family="Arial" font-size="14.00" fill="#000000">ruby.tcp_cntrl0</text>
</g>
<!-- system.ruby.tcp_cntrl0&#45;&#45;system.ruby.network_gpu.routers00 -->
<g id="edge28" class="edge">
<title>system.ruby.tcp_cntrl0&#45;&#45;system.ruby.network_gpu.routers00</title>
<path fill="none" stroke="black" d="M175.11,-47.11C180.74,-62.17 188.71,-83.46 194.34,-98.51"/>
</g>
<!-- system.ruby.tcp_cntrl1 -->
<g id="node17" class="node">
<title>system.ruby.tcp_cntrl1</title>
<path fill="#e5bcd0" stroke="#000000" d="M339.52,-80.03C339.52,-80.03 419.52,-80.03 419.52,-80.03 425.52,-80.03 431.52,-86.03 431.52,-92.03 431.52,-92.03 431.52,-104.03 431.52,-104.03 431.52,-110.03 425.52,-116.03 419.52,-116.03 419.52,-116.03 339.52,-116.03 339.52,-116.03 333.52,-116.03 327.52,-110.03 327.52,-104.03 327.52,-104.03 327.52,-92.03 327.52,-92.03 327.52,-86.03 333.52,-80.03 339.52,-80.03"/>
<text text-anchor="middle" x="379.52" y="-94.33" font-family="Arial" font-size="14.00" fill="#000000">ruby.tcp_cntrl1</text>
</g>
<!-- system.ruby.tcp_cntrl1&#45;&#45;system.ruby.network_gpu.routers01 -->
<g id="edge29" class="edge">
<title>system.ruby.tcp_cntrl1&#45;&#45;system.ruby.network_gpu.routers01</title>
<path fill="none" stroke="black" d="M351.59,-116.24C343.92,-121.25 335.61,-126.67 327.99,-131.64"/>
</g>
<!-- system.ruby.tcp_cntrl2 -->
<g id="node18" class="node">
<title>system.ruby.tcp_cntrl2</title>
<path fill="#e5bcd0" stroke="#000000" d="M15.05,-201.37C15.05,-201.37 95.05,-201.37 95.05,-201.37 101.05,-201.37 107.05,-207.37 107.05,-213.37 107.05,-213.37 107.05,-225.37 107.05,-225.37 107.05,-231.37 101.05,-237.37 95.05,-237.37 95.05,-237.37 15.05,-237.37 15.05,-237.37 9.05,-237.37 3.05,-231.37 3.05,-225.37 3.05,-225.37 3.05,-213.37 3.05,-213.37 3.05,-207.37 9.05,-201.37 15.05,-201.37"/>
<text text-anchor="middle" x="55.05" y="-215.67" font-family="Arial" font-size="14.00" fill="#000000">ruby.tcp_cntrl2</text>
</g>
<!-- system.ruby.tcp_cntrl2&#45;&#45;system.ruby.network_gpu.routers02 -->
<g id="edge30" class="edge">
<title>system.ruby.tcp_cntrl2&#45;&#45;system.ruby.network_gpu.routers02</title>
<path fill="none" stroke="black" d="M107.31,-212.34C112.16,-211.69 116.94,-211.04 121.42,-210.44"/>
</g>
<!-- system.ruby.tcp_cntrl3 -->
<g id="node19" class="node">
<title>system.ruby.tcp_cntrl3</title>
<path fill="#e5bcd0" stroke="#000000" d="M41.97,-275.46C41.97,-275.46 121.97,-275.46 121.97,-275.46 127.97,-275.46 133.97,-281.46 133.97,-287.46 133.97,-287.46 133.97,-299.46 133.97,-299.46 133.97,-305.46 127.97,-311.46 121.97,-311.46 121.97,-311.46 41.97,-311.46 41.97,-311.46 35.97,-311.46 29.97,-305.46 29.97,-299.46 29.97,-299.46 29.97,-287.46 29.97,-287.46 29.97,-281.46 35.97,-275.46 41.97,-275.46"/>
<text text-anchor="middle" x="81.97" y="-289.76" font-family="Arial" font-size="14.00" fill="#000000">ruby.tcp_cntrl3</text>
</g>
<!-- system.ruby.tcp_cntrl3&#45;&#45;system.ruby.network_gpu.routers03 -->
<g id="edge31" class="edge">
<title>system.ruby.tcp_cntrl3&#45;&#45;system.ruby.network_gpu.routers03</title>
<path fill="none" stroke="black" d="M109.77,-275.24C117.32,-270.3 125.48,-264.94 133,-260.02"/>
</g>
<!-- system.ruby.sqc_cntrl0 -->
<g id="node20" class="node">
<title>system.ruby.sqc_cntrl0</title>
<path fill="#e5bcd0" stroke="#000000" d="M97.83,-330.05C97.83,-330.05 180.83,-330.05 180.83,-330.05 186.83,-330.05 192.83,-336.05 192.83,-342.05 192.83,-342.05 192.83,-354.05 192.83,-354.05 192.83,-360.05 186.83,-366.05 180.83,-366.05 180.83,-366.05 97.83,-366.05 97.83,-366.05 91.83,-366.05 85.83,-360.05 85.83,-354.05 85.83,-354.05 85.83,-342.05 85.83,-342.05 85.83,-336.05 91.83,-330.05 97.83,-330.05"/>
<text text-anchor="middle" x="139.33" y="-344.35" font-family="Arial" font-size="14.00" fill="#000000">ruby.sqc_cntrl0</text>
</g>
<!-- system.ruby.sqc_cntrl0&#45;&#45;system.ruby.network_gpu.routers04 -->
<g id="edge32" class="edge">
<title>system.ruby.sqc_cntrl0&#45;&#45;system.ruby.network_gpu.routers04</title>
<path fill="none" stroke="black" d="M150.34,-329.78C158.28,-316.61 168.95,-298.9 176.87,-285.75"/>
</g>
<!-- system.ruby.scalar_cntrl0 -->
<g id="node21" class="node">
<title>system.ruby.scalar_cntrl0</title>
<path fill="#e5bcd0" stroke="#000000" d="M12,-123.5C12,-123.5 110,-123.5 110,-123.5 116,-123.5 122,-129.5 122,-135.5 122,-135.5 122,-147.5 122,-147.5 122,-153.5 116,-159.5 110,-159.5 110,-159.5 12,-159.5 12,-159.5 6,-159.5 0,-153.5 0,-147.5 0,-147.5 0,-135.5 0,-135.5 0,-129.5 6,-123.5 12,-123.5"/>
<text text-anchor="middle" x="61" y="-137.8" font-family="Arial" font-size="14.00" fill="#000000">ruby.scalar_cntrl0</text>
</g>
<!-- system.ruby.scalar_cntrl0&#45;&#45;system.ruby.network_gpu.routers05 -->
<g id="edge33" class="edge">
<title>system.ruby.scalar_cntrl0&#45;&#45;system.ruby.network_gpu.routers05</title>
<path fill="none" stroke="black" d="M118.18,-159.54C119.81,-160.05 121.41,-160.56 122.98,-161.05"/>
</g>
<!-- system.ruby.tcc_cntrl0 -->
<g id="node22" class="node">
<title>system.ruby.tcc_cntrl0</title>
<path fill="#e5bcd0" stroke="#000000" d="M62.19,-54.74C62.19,-54.74 142.19,-54.74 142.19,-54.74 148.19,-54.74 154.19,-60.74 154.19,-66.74 154.19,-66.74 154.19,-78.74 154.19,-78.74 154.19,-84.74 148.19,-90.74 142.19,-90.74 142.19,-90.74 62.19,-90.74 62.19,-90.74 56.19,-90.74 50.19,-84.74 50.19,-78.74 50.19,-78.74 50.19,-66.74 50.19,-66.74 50.19,-60.74 56.19,-54.74 62.19,-54.74"/>
<text text-anchor="middle" x="102.19" y="-69.04" font-family="Arial" font-size="14.00" fill="#000000">ruby.tcc_cntrl0</text>
</g>
<!-- system.ruby.tcc_cntrl0&#45;&#45;system.ruby.network_gpu.routers06 -->
<g id="edge34" class="edge">
<title>system.ruby.tcc_cntrl0&#45;&#45;system.ruby.network_gpu.routers06</title>
<path fill="none" stroke="black" d="M121.1,-90.8C130.36,-99.65 141.49,-110.28 150.8,-119.17"/>
</g>
<!-- system.dma_cntrls09 -->
<g id="node23" class="node">
<title>system.dma_cntrls09</title>
<path fill="#e5bcd0" stroke="#000000" d="M370.15,-154.38C370.15,-154.38 444.15,-154.38 444.15,-154.38 450.15,-154.38 456.15,-160.38 456.15,-166.38 456.15,-166.38 456.15,-178.38 456.15,-178.38 456.15,-184.38 450.15,-190.38 444.15,-190.38 444.15,-190.38 370.15,-190.38 370.15,-190.38 364.15,-190.38 358.15,-184.38 358.15,-178.38 358.15,-178.38 358.15,-166.38 358.15,-166.38 358.15,-160.38 364.15,-154.38 370.15,-154.38"/>
<text text-anchor="middle" x="407.15" y="-168.68" font-family="Arial" font-size="14.00" fill="#000000">dma_cntrls09</text>
</g>
<!-- system.dma_cntrls09&#45;&#45;system.ruby.network_gpu.routers07 -->
<g id="edge35" class="edge">
<title>system.dma_cntrls09&#45;&#45;system.ruby.network_gpu.routers07</title>
<path fill="none" stroke="black" d="M357.91,-178.69C352.16,-179.43 346.46,-180.16 341.17,-180.84"/>
</g>
<!-- system.dma_cntrls10 -->
<g id="node24" class="node">
<title>system.dma_cntrls10</title>
<path fill="#e5bcd0" stroke="#000000" d="M362.67,-233.35C362.67,-233.35 436.67,-233.35 436.67,-233.35 442.67,-233.35 448.67,-239.35 448.67,-245.35 448.67,-245.35 448.67,-257.35 448.67,-257.35 448.67,-263.35 442.67,-269.35 436.67,-269.35 436.67,-269.35 362.67,-269.35 362.67,-269.35 356.67,-269.35 350.67,-263.35 350.67,-257.35 350.67,-257.35 350.67,-245.35 350.67,-245.35 350.67,-239.35 356.67,-233.35 362.67,-233.35"/>
<text text-anchor="middle" x="399.67" y="-247.65" font-family="Arial" font-size="14.00" fill="#000000">dma_cntrls10</text>
</g>
<!-- system.dma_cntrls10&#45;&#45;system.ruby.network_gpu.routers08 -->
<g id="edge36" class="edge">
<title>system.dma_cntrls10&#45;&#45;system.ruby.network_gpu.routers08</title>
<path fill="none" stroke="black" d="M350.47,-234.9C346.13,-233.44 341.85,-232.01 337.79,-230.66"/>
</g>
<!-- system.dma_cntrls11 -->
<g id="node25" class="node">
<title>system.dma_cntrls11</title>
<path fill="#e5bcd0" stroke="#000000" d="M180.38,-355.95C180.38,-355.95 254.38,-355.95 254.38,-355.95 260.38,-355.95 266.38,-361.95 266.38,-367.95 266.38,-367.95 266.38,-379.95 266.38,-379.95 266.38,-385.95 260.38,-391.95 254.38,-391.95 254.38,-391.95 180.38,-391.95 180.38,-391.95 174.38,-391.95 168.38,-385.95 168.38,-379.95 168.38,-379.95 168.38,-367.95 168.38,-367.95 168.38,-361.95 174.38,-355.95 180.38,-355.95"/>
<text text-anchor="middle" x="217.38" y="-370.25" font-family="Arial" font-size="14.00" fill="#000000">dma_cntrls11</text>
</g>
<!-- system.dma_cntrls11&#45;&#45;system.ruby.network_gpu.routers09 -->
<g id="edge37" class="edge">
<title>system.dma_cntrls11&#45;&#45;system.ruby.network_gpu.routers09</title>
<path fill="none" stroke="black" d="M218.75,-355.69C219.97,-339.5 221.73,-315.96 222.94,-299.78"/>
</g>
<!-- system.dma_cntrls12 -->
<g id="node26" class="node">
<title>system.dma_cntrls12</title>
<path fill="#e5bcd0" stroke="#000000" d="M285.2,-24.9C285.2,-24.9 359.2,-24.9 359.2,-24.9 365.2,-24.9 371.2,-30.9 371.2,-36.9 371.2,-36.9 371.2,-48.9 371.2,-48.9 371.2,-54.9 365.2,-60.9 359.2,-60.9 359.2,-60.9 285.2,-60.9 285.2,-60.9 279.2,-60.9 273.2,-54.9 273.2,-48.9 273.2,-48.9 273.2,-36.9 273.2,-36.9 273.2,-30.9 279.2,-24.9 285.2,-24.9"/>
<text text-anchor="middle" x="322.2" y="-39.2" font-family="Arial" font-size="14.00" fill="#000000">dma_cntrls12</text>
</g>
<!-- system.dma_cntrls12&#45;&#45;system.ruby.network_gpu.routers10 -->
<g id="edge38" class="edge">
<title>system.dma_cntrls12&#45;&#45;system.ruby.network_gpu.routers10</title>
<path fill="none" stroke="black" d="M311.26,-61.12C303.36,-74.27 292.76,-91.94 284.87,-105.07"/>
</g>
<!-- system.dma_cntrls13 -->
<g id="node27" class="node">
<title>system.dma_cntrls13</title>
<path fill="#e5bcd0" stroke="#000000" d="M254.1,-342.65C254.1,-342.65 328.1,-342.65 328.1,-342.65 334.1,-342.65 340.1,-348.65 340.1,-354.65 340.1,-354.65 340.1,-366.65 340.1,-366.65 340.1,-372.65 334.1,-378.65 328.1,-378.65 328.1,-378.65 254.1,-378.65 254.1,-378.65 248.1,-378.65 242.1,-372.65 242.1,-366.65 242.1,-366.65 242.1,-354.65 242.1,-354.65 242.1,-348.65 248.1,-342.65 254.1,-342.65"/>
<text text-anchor="middle" x="291.1" y="-356.95" font-family="Arial" font-size="14.00" fill="#000000">dma_cntrls13</text>
</g>
<!-- system.dma_cntrls13&#45;&#45;system.ruby.network_gpu.routers11 -->
<g id="edge39" class="edge">
<title>system.dma_cntrls13&#45;&#45;system.ruby.network_gpu.routers11</title>
<path fill="none" stroke="black" d="M284.48,-342.3C278.76,-326.47 270.56,-303.74 264.88,-288.01"/>
</g>
<!-- system.dma_cntrls14 -->
<g id="node28" class="node">
<title>system.dma_cntrls14</title>
<path fill="#e5bcd0" stroke="#000000" d="M321.97,-301.86C321.97,-301.86 395.97,-301.86 395.97,-301.86 401.97,-301.86 407.97,-307.86 407.97,-313.86 407.97,-313.86 407.97,-325.86 407.97,-325.86 407.97,-331.86 401.97,-337.86 395.97,-337.86 395.97,-337.86 321.97,-337.86 321.97,-337.86 315.97,-337.86 309.97,-331.86 309.97,-325.86 309.97,-325.86 309.97,-313.86 309.97,-313.86 309.97,-307.86 315.97,-301.86 321.97,-301.86"/>
<text text-anchor="middle" x="358.97" y="-316.16" font-family="Arial" font-size="14.00" fill="#000000">dma_cntrls14</text>
</g>
<!-- system.dma_cntrls14&#45;&#45;system.ruby.network_gpu.routers12 -->
<g id="edge40" class="edge">
<title>system.dma_cntrls14&#45;&#45;system.ruby.network_gpu.routers12</title>
<path fill="none" stroke="black" d="M340.4,-301.81C331.31,-292.97 320.39,-282.35 311.25,-273.47"/>
</g>
<!-- system.ruby.gpu_dir_cntrl0 -->
<g id="node29" class="node">
<title>system.ruby.gpu_dir_cntrl0</title>
<path fill="#e5bcd0" stroke="#000000" d="M193.39,-0.5C193.39,-0.5 300.39,-0.5 300.39,-0.5 306.39,-0.5 312.39,-6.5 312.39,-12.5 312.39,-12.5 312.39,-24.5 312.39,-24.5 312.39,-30.5 306.39,-36.5 300.39,-36.5 300.39,-36.5 193.39,-36.5 193.39,-36.5 187.39,-36.5 181.39,-30.5 181.39,-24.5 181.39,-24.5 181.39,-12.5 181.39,-12.5 181.39,-6.5 187.39,-0.5 193.39,-0.5"/>
<text text-anchor="middle" x="246.89" y="-14.8" font-family="Arial" font-size="14.00" fill="#000000">ruby.gpu_dir_cntrl0</text>
</g>
<!-- system.ruby.gpu_dir_cntrl0&#45;&#45;system.ruby.network_gpu.routers13 -->
<g id="edge41" class="edge">
<title>system.ruby.gpu_dir_cntrl0&#45;&#45;system.ruby.network_gpu.routers13</title>
<path fill="none" stroke="black" d="M245.23,-36.52C243.71,-52.97 241.49,-77.16 239.96,-93.69"/>
</g>
</g>
</svg>
